# xmcd CD database file
#
# Track frame offsets:
#	150
#	12887
#	20016
#	32831
#	42215
#	54710
#	64952
#	77856
#	92737
#	103019
#	108567
#	123479
#	134555
#	145657
#	156718
#	167003
#	179547
#	191812
#	208407
#	218882
#	227337
#	239632
#
# Disc length: 3341 seconds
#
# Revision: 0
# Processed by: cddbd v1.5.2PL0 Copyright (c) Steve Scherf et al.
# Submitted via: CDex 1.70beta2
#
DISCID=4f0d0b16
DTITLE=TIC - USA. - Cty. - This Country - D4
DYEAR=1900
DGENRE=Country
TTITLE0=Janie Fricke - Your Heart's Not In It
TTITLE1=Faron Young - Goin' steady
TTITLE2=Billy Jo Spears - Dallas
TTITLE3=Merle Haggard - Today I Started Loving You Again
TTITLE4=Dolly Parton - Two Little Orphans
TTITLE5=Ferlin Husky - Gone
TTITLE6=Patsy Cline - Yes i Understood
TTITLE7=Don Gibson - Wom,an ( Sensusous Woman)
TTITLE8=Lynn Anderson - Fool Me
TTITLE9=Willie Nelson - Ghosts
TTITLE10=Juice Newton - Queen of Hearts
TTITLE11=Merle Haggard - Mamma Tried
TTITLE12=Janie Fricke - Don't Worry About Me Baby
TTITLE13=Porter Wagoner - Misery Lives Company
TTITLE14=Billy Jo Speasrs - It Makes No Difference Now
TTITLE15=Faron Young - Four In the Morning
TTITLE16=Dolly Parton - Letter To Heaven
TTITLE17=Doug Stone - In A Different Light
TTITLE18=Patsy Cline - Thrre cigarettes In the Ashtray
TTITLE19=Waylon Jennings - Abiline
TTITLE20=Lynn Anderson - Stand By Your Man
TTITLE21=Merle Haggard - Silver Wings
EXTD=
EXTT0=
EXTT1=
EXTT2=
EXTT3=
EXTT4=
EXTT5=
EXTT6=
EXTT7=
EXTT8=
EXTT9=
EXTT10=
EXTT11=
EXTT12=
EXTT13=
EXTT14=
EXTT15=
EXTT16=
EXTT17=
EXTT18=
EXTT19=
EXTT20=
EXTT21=
PLAYORDER=
